# xmcd
#
# Track frame offsets:
#	150
#	12437
#	25995
#	40420
#	52757
#	67292
#	81887
#	97887
#	114480
#	128785
#	143457
#	159030
#	174725
#	188255
#	202535
#	217692
#	229995
#	242727
#	256370
#	274262
#	290812
#
# Disc length: 4038 seconds
#
# Revision: 0
# Processed by: cddbd v1.5.2PL0 Copyright (c) Steve Scherf et al.
# Submitted via: audiograbber 1.83.01
#
DISCID=1a0fc415
DTITLE=Tammy Wynette - Tears Of Fire - The 25th Anniversary Collection [CD 3)
DYEAR=1992
DGENRE=Country
TTITLE0=Two Story House [with George Jones]
TTITLE1=Cowboys Don't Shoot Straight (Like They Used To)
TTITLE2=Crying In The Rain
TTITLE3=Another Chance
TTITLE4=You Still Get To Me In My Dreams
TTITLE5=Unwed Fathers
TTITLE6=(I'm Not) A Candle In The Wind
TTITLE7=Sometimes When We Touch [with Mark Gray]
TTITLE8=Between Twenty-Nine And Danger
TTITLE9=Alive And Well
TTITLE10=Talkin' To Myself Again [with The O'Kanes]
TTITLE11=I Wasn't Meant To Live My Life Alone [with Vince Gill]
TTITLE12=Beneath A Painted Sky [with Emmylou Harris]
TTITLE13=Your Love [with Ricky Skaggs]
TTITLE14=Higher Ground [with Larry, Steve and Rudy Gatlin]
TTITLE15=Liar's Roses
TTITLE16=We're Strangers Again [Duet with Randy Travis]
TTITLE17=Suddenly Single
TTITLE18=It Could've Been So Good
TTITLE19=Justified And Ancient X [with The KLF]
TTITLE20=Precious Memories [with The Masters Five]
EXTD=
EXTT0=
EXTT1=
EXTT2=
EXTT3=
EXTT4=
EXTT5=
EXTT6=
EXTT7=
EXTT8=
EXTT9=
EXTT10=
EXTT11=
EXTT12=
EXTT13=
EXTT14=
EXTT15=
EXTT16=
EXTT17=
EXTT18=
EXTT19=
EXTT20=
PLAYORDER=
